<?xml version="1.0" standalone="no"?>
<!DOCTYPE svg PUBLIC "-//W3C//DTD SVG 20010904//EN"
 "http://www.w3.org/TR/2001/REC-SVG-20010904/DTD/svg10.dtd">
<svg version="1.0" xmlns="http://www.w3.org/2000/svg"
 width="100.000000pt" height="100.000000pt" viewBox="0 0 100.000000 100.000000"
 preserveAspectRatio="xMidYMid meet">

<g transform="translate(0.000000,100.000000) scale(0.100000,-0.100000)"
fill="#000000" stroke="none">
<path d="M184 847 c-3 -8 -4 -43 -2 -78 l3 -64 35 0 c33 0 35 2 38 38 l3 37
239 0 239 0 3 -32 c3 -30 6 -33 38 -33 l35 0 0 70 0 70 -313 3 c-257 2 -313 0
-318 -11z m616 -62 c0 -48 -3 -55 -19 -55 -15 0 -21 8 -23 33 l-3 32 -255 0
-255 0 -3 -37 c-3 -30 -7 -38 -23 -38 -17 0 -19 7 -19 60 l0 60 300 0 300 0 0
-55z"/>
<path d="M373 753 c42 -2 112 -2 155 0 42 1 7 3 -78 3 -85 0 -120 -2 -77 -3z"/>
<path d="M397 617 c-54 -51 -98 -97 -97 -103 0 -13 43 -54 56 -54 6 0 28 18
49 41 l40 40 5 -188 5 -188 45 0 45 0 5 188 5 188 40 -40 c21 -23 44 -41 50
-41 14 0 55 42 55 57 0 10 -192 193 -201 193 -2 0 -48 -42 -102 -93z m201 -10
l93 -93 -26 -24 -25 -24 -48 47 c-26 26 -51 47 -55 47 -4 0 -7 -85 -7 -190 l0
-190 -30 0 -30 0 0 190 c0 105 -3 190 -7 190 -4 0 -29 -21 -55 -47 l-48 -47
-25 24 -26 24 93 93 c51 51 95 93 98 93 3 0 47 -42 98 -93z"/>
</g>
</svg>
